<svg width="32" height="32" viewBox="0 0 32 32" fill="none" xmlns="http://www.w3.org/2000/svg">
<g clip-path="url(#clip0_570_228)">
<path d="M13.1562 14.4687V10.1515H16.2712C17.974 10.1515 18.9697 10.9512 18.9697 12.3162C18.9697 13.7197 17.9128 14.4687 15.8828 14.4687H13.1562ZM13.1562 21.0523H16.4777C18.5497 21.0523 19.6453 20.2123 19.6453 18.6425C19.6453 17.0937 18.5077 16.2835 16.3447 16.2835H13.1562V21.0523V21.0523Z" fill="#7811F7"/>
<path d="M9.00348 2C7.14696 2 5.36649 2.7375 4.05373 4.05025C2.74098 5.36301 2.00348 7.14348 2.00348 9V23C2.00348 24.8565 2.74098 26.637 4.05373 27.9497C5.36649 29.2625 7.14696 30 9.00348 30H23.0035C24.86 30 26.6405 29.2625 27.9532 27.9497C29.266 26.637 30.0035 24.8565 30.0035 23V9C30.0035 7.14348 29.266 5.36301 27.9532 4.05025C26.6405 2.7375 24.86 2 23.0035 2H9.00348ZM10.8585 23V8.20375H16.8067C19.584 8.20375 21.257 9.6195 21.257 11.8963C21.257 13.4433 20.1195 14.8275 18.6617 15.0743V15.2493C20.662 15.454 21.9937 16.8785 21.9937 18.807C21.9937 21.411 20.0967 23 16.9397 23H10.8585Z" fill="url(#paint0_linear_570_228)"/>
</g>
<defs>
<linearGradient id="paint0_linear_570_228" x1="2" y1="16" x2="30" y2="16" gradientUnits="userSpaceOnUse">
<stop stop-color="#9D32FE"/>
<stop offset="0.324888" stop-color="#8321FC"/>
<stop offset="0.871214" stop-color="#7311F6"/>
<stop offset="1" stop-color="#7013F3"/>
</linearGradient>
<clipPath id="clip0_570_228">
<rect width="28" height="28" fill="white" transform="translate(2 2)"/>
</clipPath>
</defs>
</svg>
