<svg width="110" height="37" viewBox="0 0 110 37" fill="none" xmlns="http://www.w3.org/2000/svg">
<path d="M34.669 31.5048V8.4598H35.919V12.0848C36.0666 11.9241 36.2029 11.7533 36.327 11.5738C37.371 9.4078 39.573 8.0408 41.977 8.0678C44.827 7.9828 47.143 9.0378 48.504 11.5738C49.3701 13.1493 49.8467 14.9091 49.894 16.7063C49.9413 18.5035 49.558 20.2859 48.776 21.9048C47.508 24.7468 44.376 26.1598 41.023 25.6408C39.9795 25.5521 38.9749 25.2034 38.1008 24.6266C37.2267 24.0498 36.511 23.2633 36.019 22.3388V31.5038L34.669 31.5048ZM35.919 16.6118L36.199 19.3178C36.693 22.3978 38.514 24.2178 41.373 24.5598C42.7156 24.7805 44.0932 24.5288 45.271 23.8476C46.4488 23.1663 47.3539 22.0977 47.832 20.8238C48.944 18.1738 48.862 15.1738 47.612 12.5858C47.1017 11.4439 46.2337 10.4991 45.1389 9.89416C44.0442 9.28925 42.7823 9.0571 41.544 9.2328C40.3816 9.31736 39.2745 9.76183 38.3763 10.5045C37.4781 11.2471 36.8335 12.251 36.532 13.3768C36.2658 14.4421 36.0611 15.5219 35.919 16.6108V16.6118ZM75.417 19.7438C75.2274 21.3664 74.455 22.8649 73.2434 23.9606C72.0318 25.0564 70.4634 25.6748 68.83 25.7008C63.588 25.9648 61.128 22.4838 60.737 18.4668C60.4651 16.2854 60.8192 14.0716 61.758 12.0838C62.4114 10.7202 63.4819 9.59999 64.8146 8.8855C66.1472 8.17101 67.6726 7.89932 69.17 8.1098C70.5935 8.23079 71.9429 8.79639 73.0272 9.72654C74.1115 10.6567 74.8758 11.9043 75.212 13.2928C75.4783 14.5576 75.6743 15.8363 75.799 17.1228H62.032C61.777 20.7648 63.734 23.6928 66.508 24.3988C69.963 25.2488 72.916 23.7518 73.988 20.4668C74.226 19.6238 74.66 19.5048 75.426 19.7438H75.417ZM62.022 15.9568H74.336C74.259 12.0768 71.843 9.2568 68.566 9.2248C64.866 9.1648 62.183 11.8718 62.022 15.9568ZM77.962 19.8288H79.169C79.2133 20.718 79.5021 21.5778 80.0035 22.3135C80.5049 23.0492 81.1996 23.6324 82.011 23.9988C83.0299 24.4573 84.139 24.6802 85.2559 24.6507C86.3728 24.6213 87.4687 24.3403 88.462 23.8288C89.0035 23.585 89.457 23.1809 89.7614 22.671C90.0658 22.1611 90.2063 21.5701 90.164 20.9778C90.1952 20.4066 90.0392 19.8408 89.7198 19.3661C89.4004 18.8915 88.9349 18.534 88.394 18.3478C87.066 17.8538 85.654 17.5818 84.301 17.1478C82.8931 16.747 81.5164 16.2436 80.182 15.6418C78.002 14.5778 77.867 10.4338 80.335 9.1218C81.5987 8.40871 83.0209 8.02341 84.4717 8.00105C85.9226 7.97869 87.3559 8.31999 88.641 8.9938C90.235 9.8738 91.116 11.6508 90.854 13.4538H89.819C89.819 13.4038 89.725 13.3598 89.725 13.3088C89.597 10.0088 86.823 8.9768 83.845 9.2668C82.945 9.3668 82.092 9.6388 81.292 10.0408C80.8111 10.2604 80.4103 10.6241 80.1452 11.0815C79.88 11.5388 79.7636 12.0673 79.812 12.5938C79.813 13.1207 79.9772 13.6343 80.282 14.064C80.5867 14.4938 81.0171 14.8186 81.514 14.9938C82.814 15.4708 84.194 15.7768 85.539 16.1508L88.789 17.0008C89.5277 17.2433 90.1754 17.7042 90.6464 18.3228C91.1175 18.9413 91.3897 19.6882 91.427 20.4648C91.687 22.2098 90.797 23.9248 89.223 24.7198C86.381 26.3278 81.7 25.9028 79.615 23.8698C78.548 22.7968 77.953 21.3398 77.965 19.8278L77.962 19.8288ZM106.742 13.4548H105.61C105.61 13.3018 105.55 13.1548 105.533 13.0378C105.515 12.1893 105.206 11.3727 104.657 10.7251C104.109 10.0775 103.354 9.63819 102.52 9.4808C100.947 9.02957 99.2686 9.11042 97.746 9.7108C97.144 9.88309 96.6139 10.2456 96.235 10.7442C95.8561 11.2428 95.6488 11.8506 95.644 12.4768C95.6225 13.0917 95.8139 13.6951 96.186 14.1851C96.5581 14.675 97.0879 15.0215 97.686 15.1658L102.86 16.4938C103.42 16.628 103.971 16.7956 104.51 16.9958C106.16 17.5958 107.28 19.1278 107.33 20.8788C107.355 21.7359 107.12 22.5804 106.656 23.3014C106.192 24.0225 105.52 24.5863 104.73 24.9188C103.529 25.4643 102.228 25.7529 100.909 25.7662C99.5897 25.7794 98.2826 25.517 97.071 24.9958C96.0746 24.5661 95.2337 23.8415 94.6616 22.9195C94.0895 21.9975 93.8136 20.9224 93.871 19.8388H94.977C95.393 21.8438 96.77 23.5138 98.659 24.3038C100.548 25.0938 102.705 24.8998 104.423 23.7878C104.938 23.5197 105.366 23.1096 105.656 22.6059C105.945 22.1022 106.085 21.5261 106.057 20.9458C106.083 20.3742 105.921 19.8098 105.597 19.3382C105.273 18.8667 104.804 18.5137 104.261 18.3328C102.933 17.8388 101.521 17.5758 100.168 17.1328C98.7522 16.7381 97.3672 16.2405 96.024 15.6438C93.896 14.5968 93.726 10.4868 96.152 9.1758C97.4313 8.43278 98.8813 8.03361 100.361 8.01714C101.84 8.00067 103.298 8.36745 104.594 9.0818C105.335 9.52405 105.931 10.1722 106.311 10.9474C106.69 11.7226 106.836 12.5913 106.73 13.4478L106.742 13.4548ZM32.612 25.2848C32.1664 25.4533 31.6746 25.4528 31.2293 25.2835C30.784 25.1142 30.4161 24.7878 30.195 24.3658L25.795 18.2808L25.157 17.4308L20.051 24.3748C19.8429 24.7786 19.4949 25.0929 19.072 25.2589C18.6491 25.4249 18.1802 25.4312 17.753 25.2768L24.331 16.4518L18.211 8.4778C19.119 8.1498 20.131 8.5058 20.636 9.3278L25.196 15.4878L29.783 9.3518C29.9927 8.95488 30.3409 8.64887 30.7615 8.49196C31.182 8.33506 31.6456 8.3382 32.064 8.5008L29.689 11.6518L26.472 15.8388C26.3827 15.9185 26.3113 16.0162 26.2624 16.1255C26.2135 16.2347 26.1882 16.3531 26.1882 16.4728C26.1882 16.5925 26.2135 16.7109 26.2624 16.8201C26.3113 16.9294 26.3827 17.0271 26.472 17.1068L32.599 25.2848H32.612ZM60.542 8.3928V9.5928C59.6813 9.53634 58.8183 9.66099 58.0087 9.95869C57.1991 10.2564 56.461 10.7205 55.8419 11.3212C55.2228 11.9218 54.7365 12.6456 54.4144 13.4457C54.0923 14.2459 53.9416 15.1048 53.972 15.9668C53.972 18.7695 53.972 21.5721 53.972 24.3748V25.3278H52.755V8.4678H53.955V11.9228C55.427 9.4028 57.699 8.4678 60.55 8.3998L60.542 8.3928ZM2.002 16.3418L2.538 13.6948C4.01 8.4608 10.01 6.2828 14.138 9.5248C16.555 11.4228 17.158 14.1118 17.04 17.1418H3.423C3.203 22.5538 7.108 25.8218 12.103 24.1538C13.749 23.5538 14.988 22.1858 15.396 20.4858C15.66 19.6358 16.096 19.4898 16.894 19.7358C16.7609 20.7719 16.3946 21.7644 15.8227 22.6386C15.2508 23.5127 14.4881 24.2459 13.592 24.7828C12.1116 25.5924 10.413 25.9132 8.73926 25.6993C7.0655 25.4854 5.50224 24.7477 4.273 23.5918C3.057 22.2248 2.323 20.4968 2.18 18.6718C2.18 18.3718 2.08 18.0918 2.01 17.8218C2.00333 17.3171 2 16.8238 2 16.3418H2.002ZM3.44 15.9758H15.754C15.677 12.0528 13.201 9.2698 9.899 9.2438C6.223 9.1938 3.593 11.9158 3.431 15.9588L3.44 15.9758Z" fill="black"/>
</svg>
