<svg width="2500" height="2500" viewBox="0 0 2500 2500" fill="none" xmlns="http://www.w3.org/2000/svg">
<path d="M1250 88.8867C1891.26 88.8867 2411.11 608.74 2411.11 1250C2411.11 1891.26 1891.26 2411.11 1250 2411.11C608.74 2411.11 88.8867 1891.26 88.8867 1250C88.8867 608.74 608.74 88.8867 1250 88.8867ZM1250 0C560.752 0 0 560.752 0 1250C0 1939.25 560.752 2500 1250 2500C1939.25 2500 2500 1939.25 2500 1250C2500 560.752 1939.25 0 1250 0ZM1453.42 249.258C1351.56 230.742 1105.26 604.814 1023.79 832.598C1017.6 849.873 1003.42 913.154 1003.42 929.814C1003.42 929.814 1067.2 1067.07 1084.89 1099.26C1055.26 1083.83 993.848 964.922 993.848 964.922C964.219 1021.41 935.82 1280.74 945.078 1328.9C945.078 1328.9 1011.11 1427.16 1036.75 1451.73C1001.56 1440 942.305 1360.37 942.305 1360.37C931.191 1394.63 933.359 1465.91 938.604 1490C983.047 1554.81 1042.3 1562.23 1042.3 1562.23C1042.3 1562.23 977.49 2208.53 1075.63 2256.67C1136.75 2243.71 1151.56 1534.44 1151.56 1534.44C1151.56 1534.44 1225.63 1540 1242.3 1521.48C1279.96 1495.56 1367.56 1226.33 1368.85 1187.48C1368.85 1187.48 1267.19 1206.54 1217.61 1225.8C1254.97 1188.69 1374.34 1163.77 1374.34 1163.77C1406.71 1124.91 1474.83 860.576 1481.7 779.092C1483.42 758.652 1487.39 733.613 1484.32 697.08C1484.32 697.08 1387.24 718.34 1366.99 710.986C1387.54 708.672 1486.75 670.557 1486.75 670.557C1504.34 512.227 1509.78 259.512 1453.42 249.258V249.258ZM1098.14 1925.93C1090.38 2116.32 1085.51 2170.11 1077.49 2215C1073.79 2223.37 1070.09 2224.74 1066.38 2214.07C1032.42 2057.9 1034.89 881.67 1421.93 346.484C1196.84 757.539 1094.44 1546.3 1098.14 1925.93Z" fill="white"/>
</svg>
