<svg width="59" height="13" viewBox="0 0 59 13" fill="none" xmlns="http://www.w3.org/2000/svg">
<path d="M5.55906 9V4.472C5.55906 4.04533 5.53773 3.67733 5.49506 3.368C5.46306 3.048 5.39373 2.78133 5.28706 2.568C5.1804 2.35467 5.02573 2.19467 4.82306 2.088C4.63106 1.98133 4.37506 1.928 4.05506 1.928C3.5644 1.928 3.15373 2.07733 2.82306 2.376C2.50306 2.67467 2.27906 3.048 2.15106 3.496V9H0.871063V1H1.76706L2.00706 1.976H2.07106C2.35906 1.63467 2.68973 1.35733 3.06306 1.144C3.44706 0.92 3.94306 0.808 4.55106 0.808C5.06306 0.808 5.47906 0.909333 5.79906 1.112C6.12973 1.304 6.38573 1.64533 6.56706 2.136C6.8124 1.72 7.1484 1.39467 7.57506 1.16C8.0124 0.925333 8.50306 0.808 9.04706 0.808C9.49506 0.808 9.87373 0.861333 10.1831 0.967999C10.4924 1.064 10.7484 1.24 10.9511 1.496C11.1537 1.752 11.2977 2.09867 11.3831 2.536C11.4791 2.97333 11.5271 3.528 11.5271 4.2V9H10.2471V4.184C10.2471 3.8 10.2257 3.46933 10.1831 3.192C10.1511 2.904 10.0764 2.66933 9.95906 2.488C9.8524 2.296 9.69773 2.15733 9.49506 2.072C9.30306 1.976 9.04706 1.928 8.72706 1.928C8.19373 1.928 7.77773 2.07733 7.47906 2.376C7.1804 2.67467 6.96706 3.10133 6.83906 3.656V9H5.55906ZM11.8074 5C11.8074 3.64533 12.1061 2.61067 12.7034 1.896C13.3114 1.17067 14.1808 0.808 15.3114 0.808C15.9088 0.808 16.4261 0.909333 16.8634 1.112C17.3114 1.304 17.6794 1.58667 17.9674 1.96C18.2554 2.32267 18.4688 2.76533 18.6074 3.288C18.7461 3.8 18.8154 4.37067 18.8154 5C18.8154 6.35467 18.5114 7.39467 17.9034 8.12C17.3061 8.83467 16.4421 9.192 15.3114 9.192C14.7141 9.192 14.1914 9.096 13.7434 8.904C13.3061 8.70133 12.9434 8.41867 12.6554 8.056C12.3674 7.68267 12.1541 7.24 12.0154 6.728C11.8768 6.20533 11.8074 5.62933 11.8074 5ZM13.1354 5C13.1354 5.40533 13.1728 5.79467 13.2474 6.168C13.3328 6.54133 13.4608 6.86667 13.6314 7.144C13.8021 7.42133 14.0261 7.64533 14.3034 7.816C14.5808 7.98667 14.9168 8.072 15.3114 8.072C16.7621 8.08267 17.4874 7.05867 17.4874 5C17.4874 4.584 17.4448 4.18933 17.3594 3.816C17.2848 3.44267 17.1621 3.11733 16.9914 2.84C16.8208 2.56267 16.5968 2.344 16.3194 2.184C16.0421 2.01333 15.7061 1.928 15.3114 1.928C13.8608 1.91733 13.1354 2.94133 13.1354 5ZM24.3696 9V4.44C24.3696 3.608 24.2469 2.984 24.0016 2.568C23.7669 2.14133 23.3296 1.928 22.6896 1.928C22.1242 1.928 21.6549 2.08267 21.2816 2.392C20.9189 2.69067 20.6629 3.06933 20.5136 3.528V9H19.2336V1H20.1296L20.3696 1.976H20.4336C20.6896 1.63467 21.0309 1.35733 21.4576 1.144C21.8949 0.92 22.4122 0.808 23.0096 0.808C23.4469 0.808 23.8309 0.861333 24.1616 0.967999C24.4922 1.064 24.7642 1.24 24.9776 1.496C25.2016 1.752 25.3669 2.09867 25.4736 2.536C25.5909 2.96267 25.6496 3.50667 25.6496 4.168V9H24.3696ZM32.5116 9.368C32.5116 10.4027 32.2342 11.1653 31.6796 11.656C31.1356 12.1467 30.3249 12.392 29.2476 12.392C28.6076 12.392 28.0902 12.3493 27.6956 12.264C27.3116 12.1893 26.9809 12.088 26.7036 11.96L27.0396 10.872C27.2849 10.968 27.5569 11.0587 27.8556 11.144C28.1542 11.2293 28.5436 11.272 29.0236 11.272C29.4716 11.272 29.8342 11.2293 30.1116 11.144C30.3996 11.0693 30.6289 10.936 30.7996 10.744C30.9702 10.5627 31.0876 10.3227 31.1516 10.024C31.2156 9.736 31.2476 9.38933 31.2476 8.984V8.216H31.1836C30.9702 8.52533 30.6982 8.76533 30.3676 8.936C30.0369 9.096 29.6049 9.176 29.0716 9.176C27.9942 9.176 27.1996 8.84 26.6876 8.168C26.1862 7.496 25.9356 6.45067 25.9356 5.032C25.9356 3.66667 26.2609 2.632 26.9116 1.928C27.5622 1.21333 28.5222 0.856 29.7916 0.856C30.3996 0.856 30.9169 0.904 31.3436 1C31.7809 1.096 32.1702 1.208 32.5116 1.336V9.368ZM29.2956 8.056C29.8396 8.056 30.2662 7.92267 30.5756 7.656C30.8849 7.37867 31.1036 6.952 31.2316 6.376V2.28C30.8049 2.07733 30.2609 1.976 29.5996 1.976C28.8742 1.976 28.3036 2.22133 27.8876 2.712C27.4716 3.20267 27.2636 3.97067 27.2636 5.016C27.2636 5.464 27.3009 5.87467 27.3756 6.248C27.4502 6.62133 27.5676 6.94133 27.7276 7.208C27.8876 7.47467 28.0956 7.68267 28.3516 7.832C28.6076 7.98133 28.9222 8.056 29.2956 8.056ZM32.9293 5C32.9293 3.64533 33.228 2.61067 33.8253 1.896C34.4333 1.17067 35.3026 0.808 36.4333 0.808C37.0306 0.808 37.548 0.909333 37.9853 1.112C38.4333 1.304 38.8013 1.58667 39.0893 1.96C39.3773 2.32267 39.5906 2.76533 39.7293 3.288C39.868 3.8 39.9373 4.37067 39.9373 5C39.9373 6.35467 39.6333 7.39467 39.0253 8.12C38.428 8.83467 37.564 9.192 36.4333 9.192C35.836 9.192 35.3133 9.096 34.8653 8.904C34.428 8.70133 34.0653 8.41867 33.7773 8.056C33.4893 7.68267 33.276 7.24 33.1373 6.728C32.9986 6.20533 32.9293 5.62933 32.9293 5ZM34.2573 5C34.2573 5.40533 34.2946 5.79467 34.3693 6.168C34.4546 6.54133 34.5826 6.86667 34.7533 7.144C34.924 7.42133 35.148 7.64533 35.4253 7.816C35.7026 7.98667 36.0386 8.072 36.4333 8.072C37.884 8.08267 38.6093 7.05867 38.6093 5C38.6093 4.584 38.5666 4.18933 38.4813 3.816C38.4066 3.44267 38.284 3.11733 38.1133 2.84C37.9426 2.56267 37.7186 2.344 37.4413 2.184C37.164 2.01333 36.828 1.928 36.4333 1.928C34.9826 1.91733 34.2573 2.94133 34.2573 5ZM39.9074 5C39.9074 3.64533 40.2061 2.61067 40.8034 1.896C41.4114 1.17067 42.2808 0.808 43.4114 0.808C44.0088 0.808 44.5261 0.909333 44.9634 1.112C45.4114 1.304 45.7794 1.58667 46.0674 1.96C46.3554 2.32267 46.5688 2.76533 46.7074 3.288C46.8461 3.8 46.9154 4.37067 46.9154 5C46.9154 6.35467 46.6114 7.39467 46.0034 8.12C45.4061 8.83467 44.5421 9.192 43.4114 9.192C42.8141 9.192 42.2914 9.096 41.8434 8.904C41.4061 8.70133 41.0434 8.41867 40.7554 8.056C40.4674 7.68267 40.2541 7.24 40.1154 6.728C39.9768 6.20533 39.9074 5.62933 39.9074 5ZM41.2354 5C41.2354 5.40533 41.2728 5.79467 41.3474 6.168C41.4328 6.54133 41.5608 6.86667 41.7314 7.144C41.9021 7.42133 42.1261 7.64533 42.4034 7.816C42.6808 7.98667 43.0168 8.072 43.4114 8.072C44.8621 8.08267 45.5874 7.05867 45.5874 5C45.5874 4.584 45.5448 4.18933 45.4594 3.816C45.3848 3.44267 45.2621 3.11733 45.0914 2.84C44.9208 2.56267 44.6968 2.344 44.4194 2.184C44.1421 2.01333 43.8061 1.928 43.4114 1.928C41.9608 1.91733 41.2354 2.94133 41.2354 5ZM50.8536 6.824C50.8536 6.504 50.7576 6.25333 50.5656 6.072C50.3736 5.89067 50.1336 5.74133 49.8456 5.624C49.5682 5.496 49.2589 5.37867 48.9176 5.272C48.5869 5.15467 48.2776 5.01067 47.9896 4.84C47.7122 4.65867 47.4776 4.42933 47.2856 4.152C47.0936 3.87467 46.9976 3.50133 46.9976 3.032C46.9976 2.264 47.2162 1.704 47.6536 1.352C48.0909 0.989333 48.6989 0.808 49.4776 0.808C50.0536 0.808 50.5336 0.861333 50.9176 0.967999C51.3122 1.064 51.6536 1.18133 51.9416 1.32L51.6376 2.376C51.3922 2.25867 51.0936 2.15733 50.7416 2.072C50.4002 1.976 50.0322 1.928 49.6376 1.928C49.1682 1.928 48.8216 2.008 48.5976 2.168C48.3842 2.328 48.2776 2.60533 48.2776 3C48.2776 3.27733 48.3736 3.496 48.5656 3.656C48.7576 3.80533 48.9922 3.944 49.2696 4.072C49.5576 4.18933 49.8669 4.30667 50.1976 4.424C50.5389 4.54133 50.8482 4.696 51.1256 4.888C51.4136 5.08 51.6536 5.32533 51.8456 5.624C52.0376 5.912 52.1336 6.296 52.1336 6.776C52.1336 7.11733 52.0749 7.43733 51.9576 7.736C51.8509 8.03467 51.6802 8.29067 51.4456 8.504C51.2109 8.71733 50.9176 8.88267 50.5656 9C50.2242 9.128 49.8189 9.192 49.3496 9.192C48.7416 9.192 48.2242 9.13333 47.7976 9.016C47.3709 8.89867 47.0136 8.76 46.7256 8.6L47.1096 7.512C47.3549 7.65067 47.6749 7.77867 48.0696 7.896C48.4642 8.01333 48.8642 8.072 49.2696 8.072C49.7282 8.072 50.1069 7.98133 50.4056 7.8C50.7042 7.61867 50.8536 7.29333 50.8536 6.824ZM58.3079 8.36C57.9879 8.616 57.5826 8.81867 57.0919 8.968C56.6119 9.11733 56.0999 9.192 55.5559 9.192C54.9479 9.192 54.4199 9.096 53.9719 8.904C53.5239 8.70133 53.1559 8.41867 52.8679 8.056C52.5799 7.68267 52.3666 7.24 52.2279 6.728C52.0893 6.216 52.0199 5.64 52.0199 5C52.0199 3.63467 52.3239 2.59467 52.9319 1.88C53.5399 1.16533 54.4093 0.808 55.5399 0.808C55.9026 0.808 56.2653 0.850666 56.6279 0.936C56.9906 1.01067 57.3159 1.16 57.6039 1.384C57.8919 1.608 58.1266 1.928 58.3079 2.344C58.4893 2.74933 58.5799 3.288 58.5799 3.96C58.5799 4.312 58.5479 4.70133 58.4839 5.128H53.3479C53.3479 5.59733 53.3959 6.01333 53.4919 6.376C53.5879 6.73867 53.7373 7.048 53.9399 7.304C54.1426 7.54933 54.4039 7.74133 54.7239 7.88C55.0546 8.008 55.4546 8.072 55.9239 8.072C56.2866 8.072 56.6493 8.008 57.0119 7.88C57.3746 7.752 57.6466 7.60267 57.8279 7.432L58.3079 8.36ZM55.5559 1.928C54.9266 1.928 54.4199 2.09333 54.0359 2.424C53.6626 2.75467 53.4386 3.32 53.3639 4.12H57.3319C57.3319 3.30933 57.1773 2.744 56.8679 2.424C56.5586 2.09333 56.1213 1.928 55.5559 1.928Z" fill="#880000"/>
</svg>
