<svg width="942" height="560" viewBox="0 0 942 560" fill="none" xmlns="http://www.w3.org/2000/svg">
<g clip-path="url(#clip0_571_235)">
<path d="M749 151.2C763.194 151.2 774.7 139.694 774.7 125.5C774.7 111.306 763.194 99.8 749 99.8C734.806 99.8 723.3 111.306 723.3 125.5C723.3 139.694 734.806 151.2 749 151.2Z" fill="white"/>
<path d="M643.3 211.5C643.3 232.7 643.3 288 643.3 303.3C643.3 322.8 639.8 394.2 567.2 394.2C491.3 394.2 492.9 322.9 492.9 295.4C492.9 272 492.9 225 492.9 211.6H453.9V305.7C453.9 305.7 445.8 434.2 565.2 434.2C684.6 434.2 680.6 309.7 680.6 309.7V211.5H643.3V211.5ZM816.5 45.2H855V423.7H816.5V45.2ZM504 472.7C424.6 472.7 309.1 460.7 235.7 459.9C223.5 459.9 212.7 461.4 203.1 463.8L216.1 452.2C230.4 439.3 253.7 431.3 259.5 430.2C353.9 411.6 424.3 336.5 424.3 217.4C424.3 83.2 329.3 0 212.1 0C94.9 0 0 76.9 0 217.3C0 344.1 84.9 425.3 193.1 433.8C193.1 433.8 198.8 433.9 199.5 437.4C200.1 440.5 194.7 445 194.7 445L130.3 504.6L142.7 518L166.5 496.7C179.8 486.1 201.6 473.1 228.6 473.1C317.9 473.1 416.8 562.2 508.7 560C643.1 556.8 674.4 467 677.8 455.4C678 455 622.2 472.7 504 472.7V472.7ZM39.4 217.3C39.4 103 116.7 40.3 212.2 40.3C307.6 40.3 385 108 385 217.3C385 329.9 307.7 394.3 212.2 394.3C116.7 394.2 39.4 326.5 39.4 217.3V217.3ZM903.5 45.2H942V423.7H903.5V45.2ZM729.5 211.1H768V423.6H729.5V211.1Z" fill="white"/>
</g>
<defs>
<clipPath id="clip0_571_235">
<rect width="942" height="559.9" fill="white"/>
</clipPath>
</defs>
</svg>
