<svg width="256" height="256" viewBox="0 0 256 256" fill="none" xmlns="http://www.w3.org/2000/svg">
<path d="M128 242C190.96 242 242 190.96 242 128C242 65.0395 190.96 14 128 14C65.0395 14 14 65.0395 14 128C14 190.96 65.0395 242 128 242Z" stroke="white" stroke-width="20"/>
<path d="M97.637 121.69C124.964 99.364 151.695 76.264 179.617 54.593C164.971 77.098 149.909 99.304 135.263 121.808C122.701 121.868 110.14 121.868 97.637 121.689V121.69ZM120.737 134.132C133.358 134.132 145.92 134.132 158.482 134.311C130.977 156.517 104.365 179.795 76.383 201.407C91.029 178.902 106.091 156.637 120.737 134.132Z" fill="white"/>
</svg>
